<svg xmlns="http://www.w3.org/2000/svg" version="1.1" xmlns:xlink="http://www.w3.org/1999/xlink" xmlns:svgjs="http://svgjs.com/svgjs" width="1000" height="500" preserveAspectRatio="none" viewBox="0 0 1000 500"><g mask="url(&quot;#SvgjsMask1024&quot;)" fill="none"><rect width="1000" height="500" x="0" y="0" fill="rgba(77, 77, 77, 1)"></rect><path d="M0,343.125C68.046,348.782,145.921,352.045,197.465,307.262C248.513,262.91,232.799,180.618,258.863,118.219C283.725,58.699,343.596,14.596,346.626,-49.837C349.852,-118.453,321.744,-187.921,275.652,-238.854C229.979,-289.323,161.594,-308.773,95.964,-326.824C31.312,-344.606,-35.232,-357.633,-100.512,-342.314C-167.986,-326.48,-244.631,-301.08,-276.347,-239.456C-307.996,-177.963,-260.308,-106.149,-257.629,-37.041C-255.561,16.32,-275.669,68.111,-262.421,119.843C-247.408,178.466,-223.524,236.88,-177.435,276.095C-128.286,317.913,-64.31,337.779,0,343.125" fill="#3e3e3e"></path><path d="M1000 812.7370000000001C1056.834 802.4680000000001 1090.753 746.81 1134.057 708.596 1170.393 676.531 1205.297 646.035 1233.538 606.653 1267.868 558.779 1319.8809999999999 513.33 1316.245 454.531 1312.6019999999999 395.617 1260.901 350.95500000000004 1215.4 313.35400000000004 1174.727 279.743 1121.442 272.808 1072.496 253.102 1017.176 230.82999999999998 967.412 178.10899999999998 908.972 189.988 850.508 201.872 814.9970000000001 261.611 782.982 311.953 754.268 357.105 745.664 409.415 735.9639999999999 462.037 725.86 516.849 708.4649999999999 572.335 725.182 625.505 742.902 681.865 781.894 730.142 830.719 763.406 880.296 797.182 940.967 823.404 1000 812.7370000000001" fill="#5c5c5c"></path></g><defs><mask id="SvgjsMask1024"><rect width="1000" height="500" fill="#ffffff"></rect></mask></defs></svg>